HIERARCHY
ROOT hip
{
  OFFSET 0 0 0
  CHANNELS 6 Xposition Yposition Zposition Zrotation Yrotation Xrotation
  JOINT abdomen
  {
    OFFSET 0 20.6881 -0.73152
    CHANNELS 3 Zrotation Xrotation Yrotation
    JOINT chest
    {
      OFFSET 0 11.7043 -0.48768
      CHANNELS 3 Zrotation Xrotation Yrotation
      JOINT neck
      {
        OFFSET 0 22.1894 -2.19456
        CHANNELS 3 Zrotation Xrotation Yrotation
        JOINT head
        {
          OFFSET -0.24384 7.07133 1.2192
          CHANNELS 3 Zrotation Xrotation Yrotation
          JOINT leftEye
          {
            OFFSET 4.14528 8.04674 8.04672
            CHANNELS 3 Zrotation Xrotation Yrotation
            End Site
            {
              OFFSET 1 0 0
            }
          }
          JOINT rightEye
          {
            OFFSET -3.6576 8.04674 8.04672
            CHANNELS 3 Zrotation Xrotation Yrotation
            End Site
            {
              OFFSET 1 0 0
            }
          }
        }
      }
      JOINT rCollar
      {
        OFFSET -2.68224 19.2634 -4.8768
        CHANNELS 3 Zrotation Xrotation Yrotation
        JOINT rShldr
        {
          OFFSET -8.77824 -1.95073 1.46304
          CHANNELS 3 Zrotation Xrotation Yrotation
          JOINT rForeArm
          {
            OFFSET -28.1742 -1.7115 0.48768
            CHANNELS 3 Zrotation Xrotation Yrotation
            JOINT rHand
            {
              OFFSET -22.5879 0.773209 7.07136
              CHANNELS 3 Zrotation Xrotation Yrotation
              JOINT rThumb1
              {
                OFFSET -1.2192 -0.487915 3.41376
                CHANNELS 3 Zrotation Xrotation Yrotation
                JOINT rThumb2
                {
                  OFFSET -3.37035 -0.52449 3.41376
                  CHANNELS 3 Zrotation Xrotation Yrotation
                  End Site
                  {
                    OFFSET -1.78271 -1.18214 1.43049
                  }
                }
              }
              JOINT rIndex1
              {
                OFFSET -7.75947 0.938293 5.60832
                CHANNELS 3 Zrotation Xrotation Yrotation
                JOINT rIndex2
                {
                  OFFSET -2.54057 -0.884171 1.56538
                  CHANNELS 3 Zrotation Xrotation Yrotation
                  End Site
                  {
                    OFFSET -1.62519 -0.234802 1.16502
                  }
                }
              }
              JOINT rMid1
              {
                OFFSET -8.24714 1.18213 3.41376
                CHANNELS 3 Zrotation Xrotation Yrotation
                JOINT rMid2
                {
                  OFFSET -3.10165 -0.590103 1.0647
                  CHANNELS 3 Zrotation Xrotation Yrotation
                  End Site
                  {
                    OFFSET -2.48547 -0.328903 0.83742
                  }
                }
              }
              JOINT rRing1
              {
                OFFSET -8.82822 0.546677 1.51678
                CHANNELS 3 Zrotation Xrotation Yrotation
                JOINT rRing2
                {
                  OFFSET -2.60934 -0.819778 -0.0198488
                  CHANNELS 3 Zrotation Xrotation Yrotation
                  End Site
                  {
                    OFFSET -2.33842 -0.294052 0.168128
                  }
                }
              }
              JOINT rPinky1
              {
                OFFSET -8.27202 -0.0477905 -0.4584
                CHANNELS 3 Zrotation Xrotation Yrotation
                JOINT rPinky2
                {
                  OFFSET -1.82734 -0.647385 -0.700984
                  CHANNELS 3 Zrotation Xrotation Yrotation
                  End Site
                  {
                    OFFSET -1.69225 -0.51767 -0.607171
                  }
                }
              }
            }
          }
        }
      }
      JOINT lCollar
      {
        OFFSET 2.68224 19.2634 -4.8768
        CHANNELS 3 Zrotation Xrotation Yrotation
        JOINT lShldr
        {
          OFFSET 8.77824 -1.95073 1.46304
          CHANNELS 3 Zrotation Xrotation Yrotation
          JOINT lForeArm
          {
            OFFSET 28.1742 -1.7115 0.48768
            CHANNELS 3 Zrotation Xrotation Yrotation
            JOINT lHand
            {
              OFFSET 22.5879 0.773209 7.07136
              CHANNELS 3 Zrotation Xrotation Yrotation
              JOINT lThumb1
              {
                OFFSET 1.2192 -0.487915 3.41376
                CHANNELS 3 Zrotation Xrotation Yrotation
                JOINT lThumb2
                {
                  OFFSET 3.37035 -0.52449 3.41376
                  CHANNELS 3 Zrotation Xrotation Yrotation
                  End Site
                  {
                    OFFSET 1.78271 -1.18214 1.43049
                  }
                }
              }
              JOINT lIndex1
              {
                OFFSET 7.75947 0.938293 5.60832
                CHANNELS 3 Zrotation Xrotation Yrotation
                JOINT lIndex2
                {
                  OFFSET 2.54057 -0.884171 1.56538
                  CHANNELS 3 Zrotation Xrotation Yrotation
                  End Site
                  {
                    OFFSET 1.62519 -0.234802 1.16502
                  }
                }
              }
              JOINT lMid1
              {
                OFFSET 8.24714 1.18213 3.41376
                CHANNELS 3 Zrotation Xrotation Yrotation
                JOINT lMid2
                {
                  OFFSET 3.10165 -0.590103 1.0647
                  CHANNELS 3 Zrotation Xrotation Yrotation
                  End Site
                  {
                    OFFSET 2.48547 -0.328903 0.83742
                  }
                }
              }
              JOINT lRing1
              {
                OFFSET 8.82822 0.546677 1.51678
                CHANNELS 3 Zrotation Xrotation Yrotation
                JOINT lRing2
                {
                  OFFSET 2.60934 -0.819778 -0.0198488
                  CHANNELS 3 Zrotation Xrotation Yrotation
                  End Site
                  {
                    OFFSET 2.33842 -0.294052 0.168128
                  }
                }
              }
              JOINT lPinky1
              {
                OFFSET 8.27202 -0.0477905 -0.4584
                CHANNELS 3 Zrotation Xrotation Yrotation
                JOINT lPinky2
                {
                  OFFSET 1.82734 -0.647385 -0.700984
                  CHANNELS 3 Zrotation Xrotation Yrotation
                  End Site
                  {
                    OFFSET 1.69225 -0.51767 -0.607171
                  }
                }
              }
            }
          }
        }
      }
    }
  }
  JOINT rButtock
  {
    OFFSET -8.77824 4.35084 1.2192
    CHANNELS 3 Zrotation Xrotation Yrotation
    JOINT rThigh
    {
      OFFSET 0 -1.70687 -2.19456
      CHANNELS 3 Zrotation Xrotation Yrotation
      JOINT rShin
      {
        OFFSET 0 -36.8199 0.73152
        CHANNELS 3 Zrotation Xrotation Yrotation
        JOINT rFoot
        {
          OFFSET 0.73152 -45.1104 -5.12064
          CHANNELS 3 Zrotation Xrotation Yrotation
          End Site
          {
            OFFSET -1.1221 -3.69964 12.103
          }
        }
      }
    }
  }
  JOINT lButtock
  {
    OFFSET 8.77824 4.35084 1.2192
    CHANNELS 3 Zrotation Xrotation Yrotation
    JOINT lThigh
    {
      OFFSET 0 -1.70687 -2.19456
      CHANNELS 3 Zrotation Xrotation Yrotation
      JOINT lShin
      {
        OFFSET 0 -36.8199 0.73152
        CHANNELS 3 Zrotation Xrotation Yrotation
        JOINT lFoot
        {
          OFFSET -0.73152 -45.1104 -5.12064
          CHANNELS 3 Zrotation Xrotation Yrotation
          End Site
          {
            OFFSET 1.1221 -3.69964 12.103
          }
        }
      }
    }
  }
}
MOTION
Frames:	6
Frame Time:	0.00833333
9.84539 58.6807 81.4954 0.0 0.0 0.0 -1.09224 -0.00411005 -0.0300706 -0.301184 -0.00346604 -0.0521754 -1.09053e-14 0.0 -3.10601e-16 -3.33679e-14 3.18055e-15 -8.8366e-16 -0.0 0.0 0.0 -0.0 0.0 0.0 -5.21948e-15 2.05773e-17 4.96962e-17 -1.15757e-13 8.07563e-17 -2.98177e-15 -2.0286e-12 6.24383e-13 -5.725e-14 -2.33095e-11 -5.42931e-13 -6.45653e-13 -5.49757e-11 1.80852e-13 -1.50122e-12 -9.49499e-11 3.14875e-13 -2.59613e-12 -5.49703e-11 1.83279e-13 -1.51394e-12 7.73091 5.47488 0.417314 -5.49762e-11 1.80795e-13 -1.49486e-12 2.90554 0.965183 0.102902 -5.49659e-11 1.8149e-13 -1.49963e-12 10.2786 0.731801 0.0259123 -5.49815e-11 1.82882e-13 -1.48532e-12 2.22167 -0.733487 -0.20892 -5.41586e-15 2.21303e-17 -3.47873e-16 -1.19669e-13 3.60297e-16 -4.37326e-15 -2.04117e-12 -5.94963e-13 -2.54444e-14 -2.33043e-11 6.92044e-13 -6.55194e-13 -5.49838e-11 2.10706e-13 -1.49804e-12 -9.49547e-11 3.68944e-13 -2.58261e-12 -5.49898e-11 2.11507e-13 -1.49168e-12 -7.73091 5.47488 -0.417314 -5.49831e-11 2.10811e-13 -1.50122e-12 -2.90554 0.965183 -0.102902 -5.4992e-11 2.1101e-13 -1.50043e-12 -10.2786 0.731801 -0.0259123 -5.49813e-11 2.11507e-13 -1.51076e-12 -2.22167 -0.733487 0.20892 -2.03217e-16 0.0 -3.88251e-19 -0.322644 -1.92007 -0.0117111 -0.00931569 -2.07855 -0.0769676 -0.505356 3.99668 0.139293 2.03217e-16 0.0 3.88251e-19 -1.34019 -5.66983 0.118146 -0.000497187 4.71374 -0.0320063 0.521571 0.954275 -0.0789557
10.5585 55.6108 70.4184 -176.382 -0.5134 -175.272 -0.837458 -0.511527 1.22767 -0.502451 -2.32001 0.244149 0.323379 -0.693129 0.361025 2.3981 -0.151086 0.332365 -0.0 0.0 0.0 -0.0 0.0 0.0 -3.82889e-14 -2.6137e-14 1.41137e-14 1.19366 9.22552 -1.08853 -5.69636 -2.97093 8.44228 0.00818508 -2.00705 -0.281447 -2.40745e-10 -1.03515e-10 -1.02312e-10 -4.14156e-10 -1.82692e-10 -1.78304e-10 -2.40733e-10 -1.03518e-10 -1.02319e-10 7.73091 5.47488 0.417314 -2.40739e-10 -1.0352e-10 -1.02307e-10 2.90554 0.965183 0.102902 -2.40735e-10 -1.03515e-10 -1.02311e-10 10.2786 0.731801 0.0259123 -2.40748e-10 -1.03514e-10 -1.02301e-10 2.22167 -0.733487 -0.20892 -3.84282e-14 -2.61371e-14 1.37829e-14 1.69587 8.36453 -0.190614 5.5342 -2.84685 -8.25256 -0.0262512 -3.59527 0.501694 -4.40899e-10 -4.57954e-10 1.98252e-10 -7.63354e-10 -7.94457e-10 3.39889e-10 -4.40906e-10 -4.57953e-10 1.98256e-10 -7.73091 5.47488 -0.417314 -4.40898e-10 -4.57954e-10 1.9825e-10 -2.90554 0.965183 -0.102902 -4.40907e-10 -4.57954e-10 1.9825e-10 -10.2786 0.731801 -0.0259123 -4.40896e-10 -4.57954e-10 1.98241e-10 -2.22167 -0.733487 0.20892 -2.03217e-16 0.0 -3.88251e-19 -2.45658 -15.4263 -12.4702 0.177012 20.8149 0.230841 -0.82357 -4.35059 -2.69111 2.03217e-16 0.0 3.88251e-19 2.70659 -16.4967 10.9041 -0.181112 25.8508 -0.329014 0.765737 -8.42531 2.17651
10.5558 55.6114 70.4193 -176.405 -0.4818 -175.283 -0.546207 -1.04638 2.55757 -0.688735 -4.76877 0.558958 0.675508 -1.42696 0.743943 4.93714 -0.308063 0.68509 -0.0 0.0 0.0 -0.0 0.0 0.0 -7.39139e-14 -5.51525e-14 2.94698e-14 2.86164 18.9733 -2.33951 -10.7771 -5.89701 17.4395 -0.00465129 -4.12789 -0.580025 -4.35234e-10 -2.32859e-10 -2.11156e-10 -7.48259e-10 -4.104e-10 -3.67992e-10 -4.35214e-10 -2.32867e-10 -2.11157e-10 7.73091 5.47488 0.417314 -4.3522e-10 -2.3287e-10 -2.11152e-10 2.90554 0.965183 0.102902 -4.35222e-10 -2.3286e-10 -2.11157e-10 10.2786 0.731801 0.0259123 -4.35234e-10 -2.32859e-10 -2.1115e-10 2.22167 -0.733487 -0.20892 -7.3993e-14 -5.51542e-14 2.92089e-14 3.55353 17.209 -0.407316 10.5016 -5.65891 -17.0402 0.014975 -7.39409 1.03853 -8.5723e-10 -9.57943e-10 4.19834e-10 -1.4845e-09 -1.66192e-09 7.19903e-10 -8.57238e-10 -9.57942e-10 4.19835e-10 -7.73091 5.47488 -0.417314 -8.5723e-10 -9.57943e-10 4.19834e-10 -2.90554 0.965183 -0.102902 -8.57239e-10 -9.57944e-10 4.19832e-10 -10.2786 0.731801 -0.0259123 -8.57227e-10 -9.57943e-10 4.19824e-10 -2.22167 -0.733487 0.20892 -2.03217e-16 0.0 -3.88251e-19 -11.5797 -27.4006 -28.0801 0.0144708 45.0142 0.742944 -2.07652 -13.1209 -5.82333 2.03217e-16 0.0 3.88251e-19 11.763 -26.4113 24.0111 -0.0210332 48.1942 -0.863168 1.86453 -18.2953 4.75443
10.5587 55.6143 70.4175 -176.398 -0.4647 -175.311 -0.2611 -1.52346 3.74434 -0.832666 -6.95243 0.842392 0.996355 -2.07906 1.08371 7.19956 -0.453198 0.997123 -0.0 0.0 0.0 -0.0 0.0 0.0 -1.04428e-13 -7.84523e-14 4.22417e-14 4.74696 27.6339 -3.63891 -14.5356 -8.14034 25.5685 -0.0348757 -6.02056 -0.848503 -6.12284e-10 -3.10907e-10 -3.03934e-10 -1.05257e-09 -5.48707e-10 -5.29721e-10 -6.12258e-10 -3.10919e-10 -3.03929e-10 7.73091 5.47488 0.417314 -6.12263e-10 -3.10922e-10 -3.0393e-10 2.90554 0.965183 0.102902 -6.12272e-10 -3.10907e-10 -3.03935e-10 10.2786 0.731801 0.0259123 -6.12281e-10 -3.10907e-10 -3.03931e-10 2.22167 -0.733487 -0.20892 -1.04453e-13 -7.84555e-14 4.20445e-14 5.26937 25.0924 -0.624718 14.2083 -7.8333 -24.9757 0.112998 -10.7825 1.52912 -1.21273e-09 -1.37428e-09 5.97751e-10 -2.10015e-09 -2.38411e-09 1.02483e-09 -1.21274e-09 -1.37428e-09 5.97751e-10 -7.73091 5.47488 -0.417314 -1.21273e-09 -1.37428e-09 5.97753e-10 -2.90554 0.965183 -0.102902 -1.21274e-09 -1.37429e-09 5.9775e-10 -10.2786 0.731801 -0.0259123 -1.21273e-09 -1.37428e-09 5.97744e-10 -2.22167 -0.733487 0.20892 -2.03217e-16 0.0 -3.88251e-19 -25.7905 -33.8331 -45.067 -1.0607 66.5894 2.01677 -4.05868 -20.827 -8.91477 2.03217e-16 0.0 3.88251e-19 24.1446 -32.6082 37.8398 1.08522 68.1112 -2.21201 3.68902 -27.0065 7.43109
10.558 55.6295 70.4197 -176.405 -0.4615 -175.319 -0.0383155 -1.85888 4.57213 -0.921918 -8.474 1.042 1.22029 -2.52713 1.31498 8.76685 -0.568785 1.2074 -0.0 0.0 0.0 -0.0 0.0 0.0 -1.22163e-13 -8.74629e-14 4.85532e-14 6.31146 33.6173 -4.70549 -16.761 -9.41397 31.2962 -0.0665967 -7.34333 -1.03778 -7.45737e-10 -2.60712e-10 -3.56543e-10 -1.28239e-09 -4.63512e-10 -6.2155e-10 -7.45708e-10 -2.60726e-10 -3.56537e-10 7.73091 5.47488 0.417314 -7.45714e-10 -2.60729e-10 -3.5654e-10 2.90554 0.965183 0.102902 -7.45725e-10 -2.60712e-10 -3.56545e-10 10.2786 0.731801 0.0259123 -7.45733e-10 -2.60712e-10 -3.56543e-10 2.22167 -0.733487 -0.20892 -1.22151e-13 -8.74674e-14 4.84041e-14 6.49569 30.5745 -0.793169 16.424 -9.08717 -30.5728 0.216823 -13.1478 1.88128 -1.41615e-09 -1.5815e-09 6.66508e-10 -2.45209e-09 -2.74309e-09 1.14204e-09 -1.41615e-09 -1.5815e-09 6.66508e-10 -7.73091 5.47488 -0.417314 -1.41615e-09 -1.5815e-09 6.66511e-10 -2.90554 0.965183 -0.102902 -1.41616e-09 -1.58151e-09 6.66507e-10 -10.2786 0.731801 -0.0259123 -1.41614e-09 -1.5815e-09 6.66501e-10 -2.22167 -0.733487 0.20892 -2.03217e-16 0.0 -3.88251e-19 -38.0393 -34.9125 -57.7501 -5.77205 81.5902 6.80823 -5.98 -26.0889 -11.3265 2.03217e-16 0.0 3.88251e-19 34.782 -34.7843 48.4182 5.89628 81.9488 -7.1442 5.53694 -32.9906 9.64348
10.5571 55.6403 70.4059 -176.412 -0.4603 -175.318 0.0769794 -1.99624 4.89805 -0.957539 -9.0688 1.12095 1.30263 -2.68729 1.39535 9.35767 -0.648433 1.27805 -0.0 0.0 0.0 -0.0 0.0 0.0 -1.22224e-13 -7.17164e-14 4.40296e-14 6.9318 35.8828 -5.14638 -17.5493 -9.83262 33.5436 -0.0815692 -7.86837 -1.11336 -8.51619e-10 7.30522e-11 -3.6104e-10 -1.46586e-09 1.14723e-10 -6.29723e-10 -8.51593e-10 7.30405e-11 -3.61037e-10 7.73091 5.47488 0.417314 -8.51599e-10 7.30376e-11 -3.61036e-10 2.90554 0.965183 0.102902 -8.51608e-10 7.3052e-11 -3.61041e-10 10.2786 0.731801 0.0259123 -8.51617e-10 7.30521e-11 -3.61039e-10 2.22167 -0.733487 -0.20892 -1.22196e-13 -7.1722e-14 4.39116e-14 6.96206 32.6949 -0.85116 17.2201 -9.51186 -32.7867 0.265896 -14.0799 2.02274 -1.40698e-09 -1.4719e-09 5.43469e-10 -2.43502e-09 -2.55135e-09 9.28983e-10 -1.40699e-09 -1.4719e-09 5.43473e-10 -7.73091 5.47488 -0.417314 -1.40698e-09 -1.4719e-09 5.43472e-10 -2.90554 0.965183 -0.102902 -1.40699e-09 -1.4719e-09 5.43469e-10 -10.2786 0.731801 -0.0259123 -1.40697e-09 -1.4719e-09 5.43463e-10 -2.22167 -0.733487 0.20892 -2.03217e-16 0.0 -3.88251e-19 -43.007 -34.4923 -62.5462 -22.4261 87.3173 23.4786 -6.84001 -28.102 -12.3038 2.03217e-16 0.0 3.88251e-19 39.2221 -35.071 52.6072 21.2695 87.2199 -22.5532 6.40476 -35.2985 10.6023
